<svg width="30" height="30" viewBox="0 0 30 30" fill="none" xmlns="http://www.w3.org/2000/svg">
<path d="M15 30C6.71573 30 0 23.2843 0 15C0 6.71573 6.71573 0 15 0C23.2843 0 30 6.71573 30 15C30 23.2843 23.2843 30 15 30Z" fill="#5F98D1"/>
<path d="M24.8308 9.16895V20.8187L19.1497 14.9703L24.8308 9.16895Z" fill="white"/>
<path d="M5.16889 9.16895V20.8187L10.8218 14.9938L5.16889 9.16895Z" fill="white"/>
<path d="M24.4006 8.64062H5.63569L13.0106 16.3198C13.5355 16.8663 14.2605 17.1752 15.0181 17.1752C15.7758 17.1752 16.5008 16.8663 17.0257 16.3198L24.4006 8.64062Z" fill="white"/>
<path d="M12.5851 16.7283C13.2179 17.3871 14.1047 17.765 15.0181 17.765C15.9316 17.765 16.8184 17.3872 17.4511 16.7283L18.702 15.4258L24.4006 21.3594H5.63569L11.3343 15.4258L12.5851 16.7283Z" fill="white"/>
</svg>
