<svg width="30" height="30" viewBox="0 0 30 30" fill="none" xmlns="http://www.w3.org/2000/svg">
<path d="M15 30C6.71573 30 0 23.2843 0 15C0 6.71573 6.71573 0 15 0C23.2843 0 30 6.71573 30 15C30 23.2843 23.2843 30 15 30Z" fill="#D7182A"/>
<path d="M20.7356 10.9126H9.26424C8.17932 10.9126 7.2998 11.7922 7.2998 12.8768V17.5126C7.2998 18.5975 8.17932 19.4769 9.26424 19.4769H10.7769V22.6643C10.7769 23.4007 11.3762 23.9997 12.1126 23.9997H17.8872C18.6237 23.9997 19.223 23.4007 19.223 22.6643V19.4769H20.7356C21.8206 19.4769 22.7 18.5975 22.7 17.5127V12.8769C22.7 11.7922 21.8206 10.9126 20.7356 10.9126ZM18.0442 22.6643C18.0442 22.7508 17.9738 22.8212 17.8872 22.8212H12.1126C12.0261 22.8212 11.9556 22.7508 11.9556 22.6643V16.4082H18.0442V22.6643H18.0442ZM19.5852 14.2956C19.1439 14.2956 18.7864 13.938 18.7864 13.4968C18.7864 13.0557 19.1439 12.6981 19.5852 12.6981C20.0263 12.6981 20.384 13.0557 20.384 13.4968C20.384 13.938 20.0264 14.2956 19.5852 14.2956Z" fill="white"/>
<path d="M19.2229 7.3355C19.2229 6.59906 18.6236 6 17.8872 6H12.1126C11.3762 6 10.7769 6.59906 10.7769 7.3355V10.3236H19.2229V7.3355Z" fill="white"/>
<path d="M13.3104 17.9843H16.689C16.8788 17.9843 17.0326 17.8304 17.0326 17.6406C17.0326 17.4507 16.8788 17.2969 16.689 17.2969H13.3104C13.1206 17.2969 12.9668 17.4508 12.9668 17.6406C12.9667 17.8304 13.1206 17.9843 13.3104 17.9843Z" fill="white"/>
<path d="M13.3436 18.6874H16.7222C16.912 18.6874 17.0659 18.5336 17.0659 18.3437C17.0659 18.1539 16.912 18 16.7222 18H13.3436C13.1538 18 13 18.1539 13 18.3437C13 18.5336 13.1538 18.6874 13.3436 18.6874Z" fill="white"/>
</svg>
