<svg width="40" height="40" viewBox="0 0 40 40" fill="none" xmlns="http://www.w3.org/2000/svg">
<rect width="40" height="40" rx="20" fill="url(#paint0_linear)"/>
<g clip-path="url(#clip0)">
	<path d="M23.8511 9.729H16.1484C12.6039 9.729 9.72949 12.6034 9.72949 16.1479V23.8506C9.72949 27.3952 12.6039 30.2695 16.1484 30.2695H23.8511C27.3956 30.2695 30.27 27.3952 30.27 23.8506V16.1479C30.27 12.6034 27.3956 9.729 23.8511 9.729ZM28.3444 23.8506C28.3444 26.3283 26.3288 28.3439 23.8511 28.3439H16.1484C13.6707 28.3439 11.6552 26.3283 11.6552 23.8506V16.1479C11.6552 13.6702 13.6707 11.6547 16.1484 11.6547H23.8511C26.3288 11.6547 28.3444 13.6702 28.3444 16.1479V23.8506Z" fill="white"/>
	<path d="M19.9994 14.8643C17.1635 14.8643 14.8643 17.1635 14.8643 19.9994C14.8643 22.8353 17.1635 25.1345 19.9994 25.1345C22.8353 25.1345 25.1345 22.8353 25.1345 19.9994C25.1345 17.1635 22.8353 14.8643 19.9994 14.8643ZM19.9994 23.2089C18.2303 23.2089 16.7899 21.7684 16.7899 19.9994C16.7899 18.2291 18.2303 16.7899 19.9994 16.7899C21.7684 16.7899 23.2089 18.2291 23.2089 19.9994C23.2089 21.7684 21.7684 23.2089 19.9994 23.2089Z" fill="white"/>
	<path d="M25.5202 15.1634C25.8981 15.1634 26.2045 14.8571 26.2045 14.4792C26.2045 14.1013 25.8981 13.7949 25.5202 13.7949C25.1423 13.7949 24.8359 14.1013 24.8359 14.4792C24.8359 14.8571 25.1423 15.1634 25.5202 15.1634Z" fill="white"/>
</g>
<defs>
	<linearGradient id="paint0_linear" x1="-15.6757" y1="40" x2="54.8649" y2="-4.05405" gradientUnits="userSpaceOnUse">
		<stop stop-color="#F58529"/>
		<stop offset="0.478" stop-color="#DD2A7B"/>
		<stop offset="0.78" stop-color="#8134AF"/>
		<stop offset="1" stop-color="#515BD4"/>
	</linearGradient>
	<clipPath id="clip0">
		<rect width="20.5405" height="20.5405" fill="white" transform="translate(9.72949 9.729)"/>
	</clipPath>
</defs>
</svg>