<svg width="42" height="25" viewBox="0 0 42 25" fill="none" xmlns="http://www.w3.org/2000/svg">
<path d="M12.5501 14.2238C12.5501 14.5571 12.4513 14.8828 12.2661 15.1599C12.081 15.437 11.8178 15.653 11.5099 15.7805C11.202 15.9081 10.8632 15.9414 10.5364 15.8764C10.2095 15.8114 9.90927 15.6509 9.67362 15.4153C9.43797 15.1796 9.27749 14.8794 9.21247 14.5525C9.14746 14.2257 9.18083 13.8869 9.30836 13.579C9.43589 13.2711 9.65187 13.0079 9.92896 12.8228C10.2061 12.6376 10.5318 12.5388 10.8651 12.5388C11.312 12.5388 11.7406 12.7163 12.0566 13.0323C12.3726 13.3483 12.5501 13.7769 12.5501 14.2238ZM31.1801 12.5398C30.847 12.5398 30.5215 12.6386 30.2445 12.8236C29.9676 13.0086 29.7517 13.2717 29.6243 13.5794C29.4968 13.8871 29.4635 14.2257 29.5285 14.5523C29.5934 14.879 29.7538 15.1791 29.9893 15.4146C30.2248 15.6501 30.5249 15.8105 30.8516 15.8754C31.1782 15.9404 31.5168 15.9071 31.8245 15.7796C32.1322 15.6522 32.3953 15.4363 32.5803 15.1594C32.7653 14.8824 32.8641 14.5569 32.8641 14.2238C32.8641 13.7772 32.6867 13.3488 32.3709 13.033C32.0551 12.7172 31.6267 12.5398 31.1801 12.5398ZM37.4651 22.3478C35.3491 24.0058 32.6611 24.7553 29.9924 24.4314C27.3238 24.1075 24.8931 22.7368 23.2351 20.6208L21.0571 23.8778L18.9001 20.6478C17.2454 22.7202 14.8438 24.0608 12.2113 24.3816C9.57886 24.7025 6.92558 23.9779 4.82159 22.3635C2.7176 20.7492 1.3308 18.3739 0.959171 15.7482C0.587539 13.1224 1.26073 10.4556 2.8341 8.3208C2.40817 6.87664 1.73706 5.51648 0.850098 4.2998H7.1981C11.3492 1.71649 16.1619 0.39621 21.0501 0.499801C25.8241 0.413843 30.5201 1.71701 34.5671 4.2508L41.3321 4.2558C40.4374 5.48078 39.763 6.85229 39.3391 8.3088C40.9214 10.4303 41.6112 13.0866 41.261 15.7099C40.9109 18.3333 39.5485 20.7156 37.4651 22.3478ZM19.0871 14.3108C19.0877 12.7102 18.6136 11.1453 17.7247 9.81421C16.8359 8.48307 15.5722 7.44543 14.0936 6.83253C12.615 6.21964 10.9878 6.05902 9.4179 6.37099C7.84798 6.68297 6.40584 7.45352 5.2739 8.58519C4.14195 9.71685 3.37104 11.1588 3.05868 12.7286C2.74632 14.2985 2.90654 15.9257 3.51906 17.4045C4.13159 18.8833 5.16892 20.1472 6.49984 21.0363C7.83076 21.9255 9.39548 22.4 10.9961 22.3998C13.1421 22.3995 15.2 21.5469 16.7174 20.0294C18.2347 18.5118 19.0871 16.4538 19.0871 14.3078V14.3108ZM21.0971 13.5758C21.281 11.0826 22.3829 8.74622 24.1898 7.01856C25.9967 5.29089 28.3802 4.29474 30.8791 4.2228C27.7782 2.88226 24.4279 2.21588 21.0501 2.2678C17.6695 2.23498 14.3172 2.88673 11.1951 4.1838C13.718 4.23692 16.1305 5.22875 17.9612 6.96551C19.7919 8.70228 20.9093 11.0592 21.0951 13.5758H21.0971ZM38.7971 11.5528C38.0461 9.55063 36.5331 7.92713 34.5888 7.03706C32.6444 6.14698 30.4268 6.06271 28.4205 6.80264C26.4142 7.54258 24.7824 9.04657 23.8816 10.986C22.9808 12.9253 22.8843 15.1425 23.6131 17.1528C24.3641 19.155 25.8771 20.7785 27.8214 21.6685C29.7658 22.5586 31.9834 22.6429 33.9897 21.903C35.996 21.163 37.6278 19.659 38.5286 17.7196C39.4294 15.7803 39.5259 13.5631 38.7971 11.5528ZM15.8701 14.2238V14.2318C15.869 15.5602 15.3405 16.8338 14.4006 17.7725C13.4607 18.7113 12.1865 19.2383 10.8581 19.2378C9.52971 19.2373 8.25591 18.7092 7.31679 17.7697C6.37766 16.8302 5.8501 15.5562 5.8501 14.2278C5.8501 12.8994 6.37766 11.6254 7.31679 10.6859C8.25591 9.7464 9.52971 9.21833 10.8581 9.2178C12.1865 9.21727 13.4607 9.74433 14.4006 10.6831C15.3405 11.6218 15.869 12.8954 15.8701 14.2238ZM14.1461 14.2238V14.2178C14.1453 13.3463 13.7984 12.5108 13.1818 11.8949C12.5651 11.2791 11.7291 10.9334 10.8576 10.9338C9.98609 10.9342 9.15042 11.2807 8.53431 11.8971C7.9182 12.5135 7.5721 13.3493 7.5721 14.2208C7.5721 15.0923 7.9182 15.9281 8.53431 16.5445C9.15042 17.1609 9.98609 17.5074 10.8576 17.5078C11.7291 17.5082 12.5651 17.1625 13.1818 16.5467C13.7984 15.9308 14.1453 15.0953 14.1461 14.2238ZM36.1841 14.2238C36.1835 15.2143 35.8892 16.1823 35.3383 17.0054C34.7875 17.8286 34.0049 18.4699 33.0895 18.8482C32.1741 19.2265 31.1671 19.3248 30.1959 19.1307C29.2246 18.9366 28.3327 18.4588 27.6331 17.7577C26.9334 17.0567 26.4574 16.1639 26.2652 15.1922C26.0731 14.2206 26.1734 13.2138 26.5535 12.2992C26.9337 11.3845 27.5765 10.6032 28.4008 10.054C29.225 9.50482 30.1936 9.21242 31.1841 9.2138C32.5113 9.21566 33.7836 9.74441 34.7211 10.6839C35.6587 11.6233 36.1849 12.8966 36.1841 14.2238ZM34.4611 14.2238C34.4609 13.5744 34.2681 12.9397 33.9072 12.3999C33.5462 11.8601 33.0333 11.4395 32.4333 11.1912C31.8333 10.943 31.1731 10.8782 30.5363 11.0052C29.8994 11.1321 29.3146 11.4451 28.8556 11.9044C28.3967 12.3638 28.0842 12.949 27.9579 13.5859C27.8315 14.2229 27.8969 14.883 28.1457 15.4828C28.3945 16.0826 28.8156 16.5951 29.3557 16.9556C29.8958 17.316 30.5307 17.5082 31.1801 17.5078C32.0506 17.5073 32.8853 17.161 33.5006 16.5452C34.1159 15.9293 34.4614 15.0943 34.4611 14.2238Z" fill="#252222"/>
</svg>
