<svg width="229" height="356" viewBox="0 0 229 356" fill="none" xmlns="http://www.w3.org/2000/svg">
	<g clip-path="url(#clip0)">
	<path fill-rule="evenodd" clip-rule="evenodd" d="M4.17296 3.65264C4.17296 3.65264 46.2036 0.521827 57.9019 0.521827H61.0317C61.1726 0.505764 61.3153 0.521709 61.4492 0.568475C61.5831 0.615241 61.7047 0.691623 61.805 0.791931C61.9053 0.892238 61.9816 1.01389 62.0284 1.14781C62.0751 1.28174 62.0911 1.42449 62.075 1.56543V8.87067C62.075 8.87067 62.0312 9.91428 64.1616 9.91428C66.292 9.91428 67.8131 10.1021 67.8131 11.4797V16.6977C67.8131 16.6977 67.8428 19.3067 71.4645 19.3067H80.8541C80.8541 19.3067 81.8973 19.1408 81.8973 17.2195C81.8973 15.2982 81.9573 12.0015 85.5488 12.0015C89.1403 12.0015 89.2003 7.30526 89.2003 7.30526C89.2003 7.30526 88.8743 6.26166 94.4167 6.26166C94.4167 6.26166 97.9279 6.20948 100.155 6.78346C102.382 7.35744 104.849 5.21805 104.849 5.21805C104.849 5.21805 106.285 4.31168 108.501 5.21805C110.717 6.12442 113.196 9.39248 113.196 9.39248C113.196 9.39248 113.442 10.5279 111.109 9.91428C108.776 9.30064 107.751 6.99218 105.371 7.30526C105.371 7.30526 104.099 7.24943 103.285 8.87067C103.285 8.87067 102.912 9.39613 100.155 9.39248C97.3979 9.38882 99.714 10.1454 100.676 10.4361C101.639 10.7267 101.971 9.95133 103.285 10.4361C104.598 10.9208 109.618 13.641 113.196 13.5669C116.773 13.4928 117.89 16.1759 117.89 16.1759C117.89 16.1759 118.085 16.991 115.804 16.6977C113.523 16.4045 112.674 17.2195 112.674 17.2195C112.674 17.2195 112.726 17.8895 114.239 18.2631C115.752 18.6367 117.2 19.9214 114.239 19.8285C111.278 19.7357 107.554 20.1056 104.328 23.4812C101.102 26.8567 104.849 25.5684 104.849 25.5684C104.849 25.5684 110.655 21.2776 114.761 22.4375C116.962 23.0022 119.07 23.8809 121.02 25.0466C121.02 25.0466 123.027 27.6556 125.715 27.6556C128.404 27.6556 130 27.4542 130.41 30.2646C130.41 30.2646 133.819 30.5745 135.626 32.3518C137.434 34.1291 142.527 38.4673 142.929 41.7443C143.176 43.6496 143.176 45.5787 142.929 47.4841C142.929 47.4841 144.951 47.3562 146.581 44.8751C146.581 44.8751 147.876 43.7949 148.146 48.5277C148.146 48.5277 147.065 51.1675 148.146 51.6585C148.282 51.7296 148.432 51.7725 148.585 51.7847C148.738 51.7969 148.893 51.7781 149.039 51.7294C149.185 51.6807 149.319 51.6032 149.435 51.5013C149.55 51.3995 149.644 51.2755 149.711 51.1367C149.711 51.1367 150.665 51.1367 149.711 53.2239C148.756 55.3111 150.754 58.4419 150.754 58.4419C150.754 58.4419 150.838 60.3152 148.667 58.9637C146.497 57.6123 145.016 52.1803 145.016 52.1803C145.016 52.1803 141.07 53.598 142.929 55.8329C144.788 58.0678 145.709 58.6376 145.016 60.0073C144.323 61.3771 144.27 62.117 145.537 63.66C146.804 65.2029 142.889 65.4216 143.451 66.269C144.013 67.1164 145.553 67.4243 145.016 68.3562C144.478 69.2881 141.787 72.0313 141.886 74.096C141.985 76.1608 137.713 72.5306 137.713 72.5306C137.713 72.5306 136.207 73.0524 137.713 74.096C139.219 75.1396 136.67 76.1832 136.67 76.1832C136.67 76.1832 133.393 76.0267 134.583 77.2268C135.773 78.427 139.287 78.4541 139.278 81.4013C139.278 81.4013 137.618 82.4407 138.756 84.5321C139.894 86.6235 139.799 87.6629 139.799 87.6629C139.799 87.6629 142.785 87.7041 142.929 89.2283C142.929 89.4147 142.974 89.5982 143.062 89.7627C143.149 89.9271 143.276 90.0673 143.431 90.1706C143.586 90.274 143.765 90.3374 143.95 90.355C144.135 90.3727 144.322 90.3441 144.494 90.2719C144.494 90.2719 144.428 91.3583 142.408 91.8373C140.387 92.3163 143.451 92.8809 143.451 92.8809C143.51 93.1647 143.492 93.459 143.401 93.7339C143.309 94.0088 143.146 94.2546 142.929 94.4463C142.163 95.2217 146.059 95.4899 146.059 95.4899C146.059 95.4899 147.12 95.6877 146.059 97.0554C144.998 98.423 145.537 98.6208 145.537 98.6208C145.537 98.6208 147.322 99.1535 146.059 100.186C144.796 101.219 145.095 104.235 147.624 106.97C148.345 107.716 148.829 108.66 149.015 109.681C149.2 110.703 149.08 111.757 148.667 112.709C148.667 112.709 144.62 114.868 147.102 114.797C149.584 114.726 150.976 114.3 150.754 115.318C150.532 116.336 146.992 116.965 148.667 120.015C150.342 123.064 150.212 122.852 148.667 124.711C147.642 125.998 146.767 127.399 146.059 128.885C146.059 128.885 146.31 129.808 149.189 129.929C152.067 130.049 152.319 134.625 152.319 134.625C152.319 134.625 152.985 135.101 154.405 134.625C155.825 134.15 155.97 136.712 155.97 136.712C155.97 136.712 157.147 138.751 158.578 138.8C160.01 138.849 160.143 140.365 160.143 140.365C160.143 140.365 160.491 142.773 163.795 141.409C167.098 140.045 167.007 140.271 167.446 138.8C167.744 137.603 167.919 136.379 167.968 135.147C167.968 135.147 168.454 134.73 170.055 137.234C171.655 139.739 172.259 139.772 173.184 139.843C174.11 139.915 174.228 141.409 174.228 141.409C174.228 141.409 175.143 145.896 179.444 145.583C179.444 145.583 180.345 144.832 181.531 146.105C182.716 147.378 183.944 150.147 184.139 152.366C184.333 154.586 186.678 157.965 185.704 159.672H187.79C187.79 159.672 189.217 159.506 189.877 161.237C190.536 162.968 193.007 163.324 193.007 163.324C193.007 163.324 190.338 163.376 190.92 169.586C191.502 175.795 192.361 176.067 189.355 182.109C189.355 182.109 188.103 184.718 183.096 183.153C178.088 181.587 176.067 181.771 174.749 182.631C176.309 185.189 178.052 187.631 179.966 189.936C182.972 193.512 185.828 196.601 184.66 199.851C183.492 203.1 181.243 205.477 184.66 206.112C188.078 206.747 188.834 206.112 188.834 206.112C187.668 207.275 186.744 208.658 186.117 210.181C185.49 211.704 185.173 213.336 185.182 214.983C185.264 220.504 186.158 222.737 191.963 229.593C193.565 231.647 195.506 233.412 197.701 234.811C201.043 236.818 206.368 239.299 212.829 236.377C212.829 236.377 214.425 235.129 218.567 242.117V257.771C218.567 257.771 213.46 266.183 216.48 266.119C219.501 266.056 221.593 261.411 223.262 264.554C224.931 267.697 223.783 277.433 225.87 278.121C227.957 278.809 228.478 280.134 228.478 282.817C228.478 285.501 228.266 288.49 226.913 289.079C225.561 289.667 226.913 294.819 226.913 294.819C226.417 295.982 225.71 297.044 224.827 297.949C223.54 299.138 223.262 305.776 223.262 305.776C223.262 305.776 219.794 308.313 212.829 307.864C212.829 307.864 211.592 308.162 211.786 304.733C211.786 304.733 207.825 305.24 206.048 303.689C205.222 302.94 204.351 302.243 203.439 301.602C203.439 301.602 201.65 304.884 199.266 304.733C196.882 304.582 195.619 301.863 193.007 304.733C193.007 304.733 192.604 308.191 190.398 309.951C188.193 311.711 188.312 312.56 188.312 312.56C188.312 312.56 187.279 309.997 183.617 309.429C183.617 309.429 183.447 300.718 177.879 298.993C177.879 298.993 177.175 299.294 177.879 295.34C178.583 291.387 175.414 288.29 173.706 288.035C171.998 287.78 173.706 281.774 173.706 281.774C173.706 281.774 173.912 280.694 170.055 278.121C166.197 275.547 169.533 269.25 169.533 269.25C169.533 269.25 172.506 266.276 172.663 256.727C172.819 247.178 169.541 245.672 166.403 244.726L165.881 245.769V241.073C165.881 241.073 164.534 239.543 163.795 242.117C163.056 244.69 163.795 244.204 163.795 244.204C163.795 244.204 161.561 242.77 162.23 238.986C162.23 238.986 162.245 235.669 152.84 234.29C152.84 234.29 152.104 231.87 148.146 229.071C144.187 226.273 143.973 229.593 143.973 229.593C143.973 229.593 143.51 231.535 141.364 226.462C139.219 221.389 136.67 224.897 136.67 224.897C136.67 224.897 135.859 226.224 138.756 229.071C141.653 231.919 140.321 234.811 140.321 234.811C140.825 237.095 142.118 239.127 143.973 240.551C147.031 242.826 151.275 252.031 151.275 252.031C151.275 252.031 145.793 241.85 148.146 240.551C150.498 239.252 154.013 244.313 153.884 244.726C153.743 245.089 153.569 245.439 153.362 245.769C153.362 245.769 154.743 244.956 156.492 246.291C158.241 247.626 159.282 248.151 159.1 245.769C158.919 243.388 159.758 242.97 160.143 244.726C160.528 246.481 160.135 247.462 161.708 248.9C163.282 250.338 167.924 258.136 166.403 262.467C164.882 266.798 162.23 267.685 162.23 267.685C162.23 267.685 160.919 267.597 160.665 269.25C160.411 270.903 160.592 271.444 159.622 270.294C158.984 269.5 158.457 268.622 158.057 267.685H155.449C155.449 267.685 154.022 263.019 151.797 263.51C151.797 263.51 150.637 263.354 151.797 265.598C152.957 267.841 153.884 268.207 153.884 268.207L155.449 271.859C155.449 271.859 155.805 271.89 155.449 274.468C155.092 277.047 154.927 277.077 154.927 277.077L152.319 275.512C152.319 275.512 150.392 270.566 148.146 268.728V266.119C148.146 266.119 147.363 255.829 140.321 248.378C139.133 246.73 138.086 244.984 137.191 243.16C137.191 243.16 137.574 247.347 139.278 249.944C140.982 252.541 145.016 258.328 146.059 263.51C146.059 263.51 144.889 263.902 142.408 259.858C139.927 255.813 136.148 249.944 136.148 249.944C136.148 249.944 135.882 251.577 138.756 255.683C140.531 258.257 141.935 261.068 142.929 264.032C142.929 264.032 143.216 267.682 143.973 268.207C144.729 268.732 143.451 268.728 143.451 268.728C143.451 268.728 141.625 264.241 140.321 264.032C139.017 263.824 141.364 268.728 141.364 268.728C141.364 268.728 142.581 271.54 143.973 273.947C145.364 276.353 144.494 277.077 144.494 277.077C144.494 277.077 143.66 276.178 141.364 273.947C140.08 272.647 138.451 271.742 136.67 271.337C136.67 271.337 130.024 266.645 134.061 263.51C133.07 262.288 132.357 260.863 131.975 259.336C131.393 256.884 127.397 242.525 124.15 245.769C120.903 249.013 124.15 255.162 124.15 255.162C124.15 255.162 125.202 256.438 126.237 255.162C127.272 253.885 128.845 259.336 128.845 259.336C128.845 259.336 131.133 263.311 131.453 265.598C131.605 266.863 131.957 268.096 132.496 269.25L131.975 271.859C133 272.847 134.255 273.564 135.626 273.947C137.974 274.63 141.281 282.264 140.843 284.383C140.404 286.502 139.95 288.813 137.713 288.557C135.476 288.301 132.26 281.774 130.931 281.774C129.603 281.774 132.493 287.854 134.583 289.601C136.673 291.348 138.756 295.34 138.756 295.34C138.756 295.34 140.577 300.089 143.451 302.124C146.325 304.159 148.146 305.255 148.146 305.255C148.146 305.255 149.945 305.526 151.797 305.776C153.649 306.027 154.405 308.385 154.405 308.385C154.405 308.385 155.858 309.316 158.057 310.473C160.256 311.629 160.143 314.125 160.143 314.125C161.214 314.938 162.468 315.476 163.795 315.691C166.275 316.199 168.329 323.893 166.925 325.605C165.52 327.316 164.838 329.724 162.752 328.736C160.665 327.748 160.143 321.952 160.143 321.952C160.143 321.952 158.625 320.553 154.927 322.474C154.927 322.474 153.283 322.892 152.84 319.865C152.84 319.865 151.68 321.055 148.667 320.387C145.655 319.719 146.581 317.256 146.581 317.256C146.581 317.256 144.735 315.46 142.408 319.343C140.081 323.227 136.67 322.996 136.67 322.996C136.67 322.996 136.746 326.473 135.626 326.649C134.506 326.824 134.137 327.624 133.018 325.605C131.899 323.586 134.114 321.431 126.758 321.431C119.403 321.431 110.327 320.826 110.588 326.127C110.848 331.428 110.588 330.301 110.588 330.301C110.588 330.301 111.403 333.99 114.239 332.388C114.239 332.388 113.765 330.851 116.326 329.258C118.886 327.664 121.763 329.779 121.542 331.345C121.321 332.91 121.02 335.519 121.02 335.519C121.02 335.519 120.741 339.308 113.196 339.172C105.651 339.036 104.849 344.39 104.849 344.39C104.849 344.39 102.722 349.581 98.5898 351.695C94.4574 353.809 95.46 355.348 95.46 355.348C95.46 355.348 93.4569 356.645 93.3734 351.173C93.29 345.701 92.9921 345.445 91.2869 342.824C89.5816 340.204 88.024 338.807 87.6354 332.91C87.2468 327.014 69.378 319.343 69.378 319.343C69.378 319.343 67.8569 319.111 64.1616 313.082C60.4663 307.052 55.2937 300.037 55.2937 300.037C54.9224 300.347 54.6682 300.775 54.5734 301.249C54.4785 301.724 54.5486 302.216 54.7721 302.646C55.4784 304.374 52.1639 298.993 52.1639 298.993C52.1639 298.993 49.8165 300.17 50.0773 301.602C50.3381 303.034 47.4112 301.654 47.9907 296.384C47.9907 296.384 46.4446 293.664 43.296 293.775C43.296 293.775 43.0633 290.411 41.731 291.688C40.3988 292.964 38.0796 297.428 38.0796 297.428C38.0796 297.428 34.6795 301.284 34.4281 304.211C34.1767 307.138 31.2982 308.907 31.2982 308.907C31.2982 308.907 26.76 305.404 26.0818 306.82C25.4037 308.236 27.1251 309.951 27.1251 309.951C27.1251 309.951 25.6181 311.942 25.5602 313.082C25.5023 314.221 23.4736 316.213 23.4736 316.213C23.4736 316.213 23.7272 317.272 26.0818 318.3C28.4365 319.327 25.0386 320.387 25.0386 320.387C25.0386 320.387 22.8117 318.474 21.9087 320.387C21.3689 321.524 21.187 322.797 21.3871 324.04C21.3871 324.04 19.3668 320.651 17.214 319.865C15.0612 319.079 15.7043 322.806 17.7356 324.04C19.7669 325.274 20.3438 328.736 20.3438 328.736C20.3438 328.736 19.1101 329.501 17.7356 327.17C16.3611 324.84 16.1707 324.561 16.1707 324.561C16.1707 324.561 10.6976 325.314 8.86773 324.561C7.03781 323.808 7.97729 321.889 6.78117 321.952C5.58504 322.016 4.6946 323.518 4.6946 323.518C4.6946 323.518 4.45204 324.43 3.12968 321.431C1.80733 318.431 0.521484 316.213 0.521484 316.213C0.521484 316.213 3.74261 308.56 18.2572 291.166C32.7719 273.772 49.034 249.944 49.034 249.944C49.034 249.944 60.4704 231.989 61.5534 224.375C62.6363 216.762 41.731 197.763 41.731 197.763C41.731 197.763 21.8044 177.883 20.3438 170.63C20.3438 170.63 24.7861 172.308 28.69 165.933C32.594 159.559 38.4891 151.579 32.3415 148.192C32.3415 148.192 31.7677 147.112 34.4281 145.583C37.0885 144.054 28.1684 137.756 28.1684 137.756C28.1684 137.756 17.0575 129.986 19.8222 123.667C19.8222 123.667 19.3626 123.59 23.4736 123.145C27.5847 122.701 22.4304 116.884 22.4304 116.884C21.9374 115.551 21.7589 114.123 21.9087 112.709C22.1226 110.197 16.3449 111.796 16.1707 111.666C15.9965 111.535 9.84528 113.683 9.38937 97.0554C9.38937 97.0554 10.7076 94.1453 15.649 92.8809C20.5905 91.6166 17.214 85.0539 17.214 85.0539C17.214 85.0539 16.8822 85.8011 10.9543 86.0975C7.07224 86.2916 11.0158 80.9176 15.1274 80.3577C15.1274 80.3577 16.7664 79.9314 15.649 75.6614C14.5317 71.3915 16.6923 66.7908 16.6923 66.7908C16.6923 66.7908 17.2933 64.7098 14.0841 61.5728C10.875 58.4357 18.0053 55.0419 20.3438 57.9201C22.6823 60.7984 26.1465 62.117 23.9953 54.7893C21.844 47.4616 20.1091 47.782 18.7789 32.8736C18.7789 32.8736 9.84111 16.5464 4.17296 3.65264Z" stroke="white" stroke-width="2"/>
	<path fill-rule="evenodd" clip-rule="evenodd" d="M33.9063 271.337C33.9063 271.337 32.4394 276.787 34.9496 278.643C37.4597 280.498 40.6819 285.172 41.7309 285.426C42.7799 285.68 48.2237 284.742 51.1204 284.383C54.0171 284.024 57.9017 283.861 57.9017 283.861C57.9017 283.861 56.1537 281.978 62.5965 279.686C69.0393 277.395 79.2368 274.501 82.4188 274.468C85.6008 274.436 87.3781 278.956 90.2434 281.774C93.1088 284.591 98.8505 288.296 106.414 285.948C113.978 283.6 114.239 284.383 114.239 284.383C114.239 284.383 127.11 281.502 131.975 290.644C136.839 299.786 138.841 301.233 134.583 318.822C134.583 318.822 132.787 323.245 133.54 324.561C134.292 325.878 135.675 320.914 124.672 320.909C113.668 320.904 113.352 320.292 111.926 325.547C110.849 329.519 111.608 331.867 112.784 331.867C113.96 331.867 115.889 330.424 117.369 329.258C119.488 327.578 121.542 331.867 121.542 331.867C121.542 331.867 121.428 338.562 118.359 338.414C115.29 338.267 108.739 338.192 105.494 342.704C102.248 347.215 103.12 349.615 95.2016 353.855C95.2016 353.855 92.8756 357.258 93.8949 347.521C93.8949 347.521 92.6286 343.132 90.7651 340.737C88.3869 338.629 87.4224 335.036 86.5919 331.345C85.7615 327.654 77.7966 322.51 73.7596 321.258C66.5089 319.008 63.0387 310.964 63.0387 310.964C63.0387 310.964 56.7134 297.675 53.7286 300.558C53.7286 300.558 50.2701 298.688 49.5555 300.558C48.8408 302.429 48.8549 292.716 43.8175 293.253C43.8175 293.253 43.71 287.866 40.166 292.731C37.8161 296.045 35.7234 299.534 33.9063 303.167C33.9063 303.167 33.2256 307.061 31.2981 307.864C29.7624 308.503 27.5631 303.416 25.5601 307.342C25.8693 308.179 26.0453 309.059 26.0817 309.951C26.0488 311.072 24.5168 313.604 24.5168 313.604L23.4735 315.169L25.0384 317.778L26.0817 319.542C26.0817 319.542 22.5384 318.922 21.8701 319.542C21.2019 320.163 20.8653 321.952 20.8653 321.952L17.7355 319.343L15.8664 319.542C15.8664 319.542 14.292 321.117 15.6489 322.474C17.0058 323.831 20.5836 327.692 19.2971 327.692C18.0106 327.692 16.7241 323.402 9.00497 324.26L7.82429 321.952L4.28774 322.545L1.04297 316.213L8.86757 303.689L16.1705 294.297L28.1683 279.165L33.9063 271.337Z" fill="white"/>
	</g>
	<defs>
	<clipPath id="clip0">
	<rect width="229" height="356" fill="white"/>
	</clipPath>
	</defs>
</svg>