<svg width="40" height="40" viewBox="0 0 40 40" fill="none" xmlns="http://www.w3.org/2000/svg">
	<rect width="40" height="40" rx="20" fill="#1DA1F2"/>
	<g clip-path="url(#clip0)">
		<path d="M30.4469 14.0052C29.6921 14.3363 28.8878 14.5558 28.0492 14.6624C28.9119 14.1473 29.5703 13.3379 29.8799 12.3623C29.0755 12.8418 28.1875 13.1806 27.241 13.3696C26.4773 12.5564 25.3888 12.0527 24.2013 12.0527C21.8975 12.0527 20.0427 13.9227 20.0427 16.2152C20.0427 16.545 20.0706 16.8622 20.1391 17.1642C16.6795 16.9954 13.6182 15.3373 11.5617 12.8114C11.2027 13.4343 10.9921 14.1473 10.9921 14.9148C10.9921 16.356 11.7343 17.6336 12.8405 18.3732C12.1719 18.3605 11.516 18.1664 10.9604 17.8606C10.9604 17.8733 10.9604 17.8898 10.9604 17.9063C10.9604 19.9286 12.4028 21.6083 14.2944 21.9952C13.9557 22.0878 13.5865 22.1322 13.2034 22.1322C12.9369 22.1322 12.668 22.117 12.4155 22.0612C12.9547 23.7092 14.4847 24.9207 16.304 24.96C14.8881 26.0676 13.0905 26.7349 11.1443 26.7349C10.8031 26.7349 10.4758 26.7197 10.1484 26.6778C11.9918 27.8665 14.1764 28.5453 16.5323 28.5453C24.1899 28.5453 28.3765 22.202 28.3765 16.7036C28.3765 16.5197 28.3702 16.3421 28.3613 16.1657C29.1872 15.5796 29.8811 14.8476 30.4469 14.0052Z" fill="white"/>
	</g>
	<defs>
		<clipPath id="clip0">
			<rect width="20.2985" height="20.2985" fill="white" transform="translate(10.1484 10.1499)"/>
		</clipPath>
	</defs>
</svg>